<?xml version="1.0" encoding="utf-8"?>
<!-- Generator: Adobe Illustrator 22.0.1, SVG Export Plug-In . SVG Version: 6.00 Build 0)  -->
<svg version="1.1" id="Layer_1" xmlns="http://www.w3.org/2000/svg" xmlns:xlink="http://www.w3.org/1999/xlink" x="0px" y="0px"
	 viewBox="0 0 28.3 28.3" style="enable-background:new 0 0 28.3 28.3;" xml:space="preserve">
<style type="text/css">
	.st0{fill:#0071CE;}
	.st1{fill:#DC8327;}
	.st2{fill:#F4B21B;}
	.st3{fill:#F2D864;}
</style>
<g>
	<path class="st0" d="M23.6,22.3c-0.3,0-0.7-0.2-0.8-0.6c-0.1-0.4,0.1-0.9,0.5-1c1.5-0.5,2.5-1.8,2.5-3.4c0-2-1.6-3.6-3.6-3.6
		c-0.1,0-0.3,0-0.5,0L21,13.8L20.9,13c-0.5-3.4-3.4-5.9-6.8-5.9c-2.8,0-5.3,1.7-6.4,4.3l-0.2,0.5l-0.5,0c-2.4,0-4.4,2.1-4.4,4.5
		c0,1.8,1,3.4,2.6,4.1c0.4,0.2,0.6,0.7,0.4,1.1C5.3,22,4.9,22.2,4.5,22c-2.2-1-3.6-3.2-3.6-5.6c0-3.1,2.4-5.8,5.5-6.1
		c1.4-3,4.4-4.8,7.7-4.8c4,0,7.4,2.8,8.3,6.6c2.8,0,5.1,2.4,5.1,5.2c0,2.2-1.5,4.2-3.6,4.9C23.7,22.2,23.7,22.3,23.6,22.3z"/>
	<path class="st1" d="M11.3,22.6C11.3,22.6,11.3,22.6,11.3,22.6C11.3,22.6,11.3,22.6,11.3,22.6L11.3,22.6L11.3,22.6L11.3,22.6
		C11.3,22.6,11.3,22.6,11.3,22.6L11.3,22.6L11.3,22.6C11.3,22.6,11.3,22.6,11.3,22.6L11.3,22.6L11.3,22.6L11.3,22.6
		C11.3,22.6,11.3,22.6,11.3,22.6C11.3,22.6,11.3,22.6,11.3,22.6L11.3,22.6L11.3,22.6L11.3,22.6L11.3,22.6
		C11.3,22.6,11.3,22.6,11.3,22.6C11.3,22.6,11.3,22.6,11.3,22.6L11.3,22.6C11.3,22.6,11.3,22.6,11.3,22.6L11.3,22.6
		C11.3,22.6,11.3,22.6,11.3,22.6C11.3,22.6,11.3,22.6,11.3,22.6C11.3,22.6,11.3,22.6,11.3,22.6L11.3,22.6
		C11.3,22.6,11.3,22.6,11.3,22.6C11.3,22.6,11.3,22.6,11.3,22.6L11.3,22.6L11.3,22.6C11.3,22.6,11.3,22.6,11.3,22.6L11.3,22.6
		C11.2,22.6,11.2,22.6,11.3,22.6L11.3,22.6L11.3,22.6L11.3,22.6C11.2,22.6,11.2,22.6,11.3,22.6L11.3,22.6L11.3,22.6L11.3,22.6
		L11.3,22.6L11.3,22.6L11.3,22.6L11.3,22.6L11.3,22.6L11.3,22.6L11.3,22.6L11.3,22.6L11.3,22.6L11.3,22.6L11.3,22.6L11.3,22.6
		L11.3,22.6L11.3,22.6L11.3,22.6L11.3,22.6c-0.4,0-0.7-0.3-0.7-0.6v-7.1h0.5h0c0.1,0,0.1-0.1,0.1-0.1c0-0.1,0-0.1-0.1-0.1l-2.6-1.8
		c0,0-0.1,0-0.2,0l-2.6,1.8c0,0-0.1,0.1-0.1,0.2c0,0.1,0.1,0.1,0.1,0.1h0.5l0,7.1c0,0.5,0.4,0.9,0.9,0.9c0,0,0,0,0,0h3.9h0
		c0,0,0.1,0,0.1,0c0,0,0,0,0,0c0,0,0,0,0,0c0,0,0,0,0,0l0,0l0,0l0,0l0,0l0,0l0,0c0,0,0,0,0,0c0,0,0,0,0,0l0,0c0,0,0,0,0,0
		c0,0,0-0.1,0-0.1v0v0v0v0v0v0v0v0C11.3,22.7,11.3,22.6,11.3,22.6z"/>
	<path class="st2" d="M16.9,22.6C16.9,22.6,16.9,22.6,16.9,22.6C16.9,22.6,16.9,22.6,16.9,22.6L16.9,22.6L16.9,22.6L16.9,22.6
		L16.9,22.6L16.9,22.6L16.9,22.6C16.9,22.6,16.9,22.6,16.9,22.6L16.9,22.6L16.9,22.6C16.9,22.6,16.9,22.6,16.9,22.6
		C16.9,22.6,16.9,22.6,16.9,22.6L16.9,22.6L16.9,22.6L16.9,22.6L16.9,22.6L16.9,22.6C16.9,22.6,16.9,22.6,16.9,22.6
		C16.9,22.6,16.9,22.6,16.9,22.6L16.9,22.6L16.9,22.6C16.9,22.6,16.9,22.6,16.9,22.6C16.9,22.6,16.9,22.6,16.9,22.6
		C16.9,22.6,16.9,22.6,16.9,22.6C16.9,22.6,16.9,22.6,16.9,22.6C16.9,22.6,16.9,22.6,16.9,22.6C16.9,22.6,16.9,22.6,16.9,22.6
		C16.9,22.6,16.9,22.6,16.9,22.6C16.9,22.6,16.9,22.6,16.9,22.6C16.9,22.6,16.9,22.6,16.9,22.6L16.9,22.6L16.9,22.6
		C16.9,22.6,16.8,22.6,16.9,22.6L16.9,22.6L16.9,22.6L16.9,22.6L16.9,22.6L16.9,22.6L16.9,22.6L16.9,22.6L16.9,22.6L16.9,22.6
		L16.9,22.6L16.9,22.6L16.9,22.6L16.9,22.6L16.9,22.6L16.9,22.6L16.9,22.6L16.9,22.6L16.9,22.6L16.9,22.6L16.9,22.6L16.9,22.6
		L16.9,22.6L16.9,22.6c-0.4,0-0.7-0.3-0.7-0.6v-5.5h0.5c0,0,0,0,0,0c0.1,0,0.1-0.1,0.1-0.1c0-0.1,0-0.1-0.1-0.1l-2.6-1.8
		c0,0-0.1,0-0.2,0l-2.6,1.8c0,0-0.1,0.1-0.1,0.2c0,0.1,0.1,0.1,0.1,0.1H12l0,5.5c0,0.5,0.4,0.9,0.9,0.9c0,0,0,0,0,0h3.9h0
		c0,0,0.1,0,0.1,0c0,0,0,0,0,0c0,0,0,0,0,0c0,0,0,0,0,0l0,0l0,0l0,0c0,0,0,0,0,0l0,0c0,0,0,0,0,0c0,0,0,0,0,0c0,0,0,0,0,0
		c0,0,0,0,0,0c0,0,0,0,0,0c0,0,0-0.1,0-0.1v0v0v0v0v0v0v0v0C17,22.7,16.9,22.6,16.9,22.6z"/>
	<path class="st3" d="M22.5,22.6L22.5,22.6C22.5,22.6,22.5,22.6,22.5,22.6L22.5,22.6L22.5,22.6L22.5,22.6
		C22.5,22.6,22.5,22.6,22.5,22.6L22.5,22.6L22.5,22.6L22.5,22.6C22.5,22.6,22.5,22.6,22.5,22.6L22.5,22.6L22.5,22.6
		C22.5,22.6,22.5,22.6,22.5,22.6C22.5,22.6,22.5,22.6,22.5,22.6L22.5,22.6L22.5,22.6L22.5,22.6L22.5,22.6
		C22.5,22.6,22.5,22.6,22.5,22.6C22.5,22.6,22.5,22.6,22.5,22.6L22.5,22.6C22.5,22.6,22.5,22.6,22.5,22.6
		C22.5,22.6,22.5,22.6,22.5,22.6C22.5,22.6,22.5,22.6,22.5,22.6C22.5,22.6,22.5,22.6,22.5,22.6L22.5,22.6
		C22.5,22.6,22.5,22.6,22.5,22.6L22.5,22.6C22.5,22.6,22.5,22.6,22.5,22.6C22.5,22.6,22.5,22.6,22.5,22.6
		C22.5,22.6,22.5,22.6,22.5,22.6C22.5,22.6,22.5,22.6,22.5,22.6L22.5,22.6C22.5,22.6,22.5,22.6,22.5,22.6L22.5,22.6L22.5,22.6
		L22.5,22.6L22.5,22.6L22.5,22.6L22.5,22.6C22.5,22.6,22.5,22.6,22.5,22.6L22.5,22.6L22.5,22.6L22.5,22.6L22.5,22.6L22.5,22.6
		L22.5,22.6L22.5,22.6C22.5,22.6,22.5,22.6,22.5,22.6L22.5,22.6L22.5,22.6L22.5,22.6L22.5,22.6L22.5,22.6L22.5,22.6L22.5,22.6
		L22.5,22.6c-0.4,0-0.7-0.3-0.7-0.6v-3.9h0.5h0c0.1,0,0.1-0.1,0.1-0.1c0-0.1,0-0.1-0.1-0.1L19.8,16c0,0-0.1,0-0.2,0L17,17.8
		c0,0-0.1,0.1-0.1,0.2c0,0.1,0.1,0.1,0.1,0.1h0.5l0,3.9c0,0.5,0.4,0.9,0.9,0.9c0,0,0,0,0,0h3.9h0c0,0,0.1,0,0.1,0l0,0c0,0,0,0,0,0
		c0,0,0,0,0,0l0,0l0,0l0,0l0,0l0,0l0,0c0,0,0,0,0,0c0,0,0,0,0,0l0,0c0,0,0,0,0,0c0,0,0-0.1,0-0.1v0v0v0v0v0v0v0v0
		C22.6,22.7,22.6,22.6,22.5,22.6z"/>
</g>
</svg>
